<svg xmlns="http://www.w3.org/2000/svg" width="107" height="65" viewBox="0 0 107 65"><g fill="#363636"><path d="M98.967 4.074c.752 1.441 1.209 3.08 1.209 4.818v21.102c0 4.616-3.092 8.527-7.246 9.9-1.325 3.987-3.778 7.854-8.051 10.432-8.676 5.231-31.124 4.837-31.198 4.837-.078 0-22.513.395-31.189-4.837-4.216-2.545-6.708-6.347-8.042-10.279-4.418-1.209-7.756-5.251-7.756-10.053V8.893c0-1.688.427-3.282 1.139-4.693C4.17 5.109 0 6.918 0 10.434v29.983C0 50.668 11.839 64.85 53.657 64.85c41.82 0 53.657-14.182 53.657-24.433V10.434c-.001-3.684-4.576-5.494-8.347-6.36z"/><path d="M20.561 38.459h65.523c5.564 0 10.074-4.513 10.074-10.077V9.935c0-5.563-4.51-10.075-10.074-10.075H20.561c-5.564 0-10.075 4.511-10.075 10.075v18.447c0 5.564 4.511 10.077 10.075 10.077zM83.695 9.468a1.57 1.57 0 1 1 0 3.139 1.57 1.57 0 0 1 0-3.139zm0 4.039a1.569 1.569 0 1 1 0 3.138 1.569 1.569 0 0 1 0-3.138zm0 4.039a1.568 1.568 0 1 1 .001 3.137 1.568 1.568 0 0 1-.001-3.137zm0 3.827a1.57 1.57 0 1 1-.001 3.14 1.57 1.57 0 0 1 .001-3.14zm0 4.039a1.568 1.568 0 1 1 .001 3.137 1.568 1.568 0 0 1-.001-3.137zM79.656 9.468c.867 0 1.568.703 1.568 1.57a1.568 1.568 0 1 1-3.136 0c0-.868.703-1.57 1.568-1.57zm0 15.944a1.568 1.568 0 1 1 0 3.135 1.568 1.568 0 0 1 0-3.135zM75.619 9.468a1.57 1.57 0 1 1-.003 3.14 1.57 1.57 0 0 1 .003-3.14zm0 4.039a1.57 1.57 0 1 1-.003 3.139 1.57 1.57 0 0 1 .003-3.139zm0 4.039a1.569 1.569 0 1 1-.002 3.138 1.569 1.569 0 0 1 .002-3.138zm0 3.827a1.568 1.568 0 1 1 0 3.138 1.568 1.568 0 0 1 0-3.138zm0 4.039a1.569 1.569 0 1 1-.002 3.138 1.569 1.569 0 0 1 .002-3.138zM67.965 9.468c.867 0 1.568.703 1.568 1.57a1.568 1.568 0 1 1-3.136 0 1.568 1.568 0 0 1 1.568-1.57zm0 8.078a1.568 1.568 0 1 1-1.568 1.569 1.568 1.568 0 0 1 1.568-1.569zm0 3.881a1.569 1.569 0 1 1-.002 3.136 1.569 1.569 0 0 1 .002-3.136zm0 3.985a1.568 1.568 0 1 1 0 3.135 1.568 1.568 0 0 1 0-3.135zM63.926 9.468a1.57 1.57 0 1 1 0 3.14 1.57 1.57 0 0 1 0-3.14zm0 8.078a1.57 1.57 0 1 1 .001 3.139 1.57 1.57 0 0 1-.001-3.139zm0 7.866a1.57 1.57 0 1 1 .001 3.139 1.57 1.57 0 0 1-.001-3.139zM59.888 9.468a1.57 1.57 0 0 1 0 3.139 1.568 1.568 0 0 1-1.568-1.569 1.567 1.567 0 0 1 1.568-1.57zm0 4.039a1.57 1.57 0 1 1-.001 3.135 1.57 1.57 0 0 1 .001-3.135zm0 4.039a1.57 1.57 0 1 1-.001 3.14 1.57 1.57 0 0 1 .001-3.14zm0 7.866a1.57 1.57 0 0 1 0 3.137 1.569 1.569 0 0 1 0-3.137zm-8.29-15.944a1.57 1.57 0 1 1 0 3.139 1.57 1.57 0 0 1 0-3.139zm0 4.039a1.569 1.569 0 1 1 0 3.138 1.569 1.569 0 0 1 0-3.138zm0 4.039a1.568 1.568 0 1 1 .001 3.137 1.568 1.568 0 0 1-.001-3.137zm0 3.881a1.568 1.568 0 1 1 0 3.137 1.569 1.569 0 0 1 0-3.137zm0 3.985a1.568 1.568 0 1 1 .001 3.137 1.568 1.568 0 0 1-.001-3.137zm-4.039-11.905a1.568 1.568 0 1 1 0 3.136 1.568 1.568 0 0 1 0-3.136zm-8.502-.212a1.57 1.57 0 1 1-.001 3.135 1.57 1.57 0 0 1 .001-3.135zm0 4.038a1.57 1.57 0 1 1-.003 3.141 1.57 1.57 0 0 1 .003-3.141zm-4.039-8.078a1.57 1.57 0 1 1-.003 3.14 1.57 1.57 0 0 1 .003-3.14zm0 4.04a1.57 1.57 0 1 1-.003 3.139 1.57 1.57 0 0 1 .003-3.139zm0 4.038a1.57 1.57 0 1 1-.003 3.14 1.57 1.57 0 0 1 .003-3.14zm0 4.04a1.569 1.569 0 1 1-.001 3.137 1.569 1.569 0 0 1 .001-3.137zm-4.254-8.078a1.569 1.569 0 1 1 0 3.138 1.569 1.569 0 0 1 0-3.138zm0 4.038a1.57 1.57 0 1 1 0 3.139 1.57 1.57 0 0 1 0-3.139zm0 4.04a1.57 1.57 0 1 1-.001 3.14 1.57 1.57 0 0 1 .001-3.14zm0 4.039a1.568 1.568 0 1 1 .001 3.137 1.568 1.568 0 0 1-.001-3.137zM26.3 9.255a1.57 1.57 0 1 1 0 0zm0 4.04a1.57 1.57 0 0 1 1.571 1.568 1.57 1.57 0 0 1-3.14 0 1.57 1.57 0 0 1 1.569-1.568zm0 4.038a1.571 1.571 0 1 1 0 3.14 1.571 1.571 0 0 1 0-3.14zm0 4.04a1.57 1.57 0 1 1 0 0zm-4.037-8.078a1.57 1.57 0 1 1-.001 3.135 1.57 1.57 0 0 1 .001-3.135zm0 4.038a1.57 1.57 0 0 1 0 3.14 1.57 1.57 0 0 1 0-3.14z"/></g></svg>